<svg xmlns="http://www.w3.org/2000/svg" version="1.1" xmlns:xlink="http://www.w3.org/1999/xlink" xmlns:svgjs="http://svgjs.dev/svgjs" width="1000" height="625" viewBox="0 0 1000 625"><g transform="matrix(1,0,0,1,0,0)"><svg viewBox="0 0 512 320" data-background-color="#ffffff" preserveAspectRatio="xMidYMid meet" height="625" width="1000" xmlns="http://www.w3.org/2000/svg" xmlns:xlink="http://www.w3.org/1999/xlink"><g id="tight-bounds" transform="matrix(1,0,0,1,0,0)"><svg viewBox="0 0 512 320" height="320" width="512"><g><svg></svg></g><g><svg viewBox="0 0 512 320" height="320" width="512"><g><path xmlns="http://www.w3.org/2000/svg" d="M96 160c0-88.366 71.634-160 160-160 88.366 0 160 71.634 160 160 0 88.366-71.634 160-160 160-88.366 0-160-71.634-160-160zM256 316.109c86.216 0 156.109-69.892 156.109-156.109 0-86.216-69.892-156.109-156.109-156.109-86.216 0-156.109 69.892-156.109 156.109 0 86.216 69.892 156.109 156.109 156.109z" fill="#556b2f" fill-rule="nonzero" stroke="none" stroke-width="1" stroke-linecap="butt" stroke-linejoin="miter" stroke-miterlimit="10" stroke-dasharray="" stroke-dashoffset="0" font-family="none" font-weight="none" font-size="none" text-anchor="none" style="mix-blend-mode: normal" data-fill-palette-color="tertiary"></path></g><g transform="matrix(1,0,0,1,175.0090039096309,80)"><svg viewBox="0 0 161.98199218073816 160" height="160" width="161.98199218073816"><g><svg viewBox="0 0 242.96683295540439 239.99392" height="160" width="161.98199218073816"><g><svg viewBox="0 0 242.96683295540439 239.99392" height="239.99392" width="242.96683295540439"><g id="textblocktransform"><svg viewBox="0 0 242.96683295540439 239.99392" height="239.99392" width="242.96683295540439" id="textblock"><g><rect width="242.96683295540439" height="160" fill="none" stroke-width="5.83696" stroke="#556b2f" data-fill-palette-color="none" data-stroke-palette-color="tertiary"></rect><rect width="242.96683295540439" height="79.99392" y="160" fill="#556b2f" data-fill-palette-color="tertiary"></rect></g><g><svg viewBox="0 0 242.96683295540439 160" height="160" width="242.96683295540439"><g transform="matrix(1,0,0,1,15.280000000000001,15.280000000000001)"><svg width="212.40683295540438" viewBox="3.6500000953674316 -32.43000030517578 54.269996643066406 33.08000183105469" height="129.44" data-palette-color="#556b2f"><path d="M27.35 0L3.65 0 3.65-4.17 22.73-29.15 22.73-27.4 3.65-27.5 3.65-31.85 27.35-31.85 27.35-27.68 9.1-3.75 8.85-4.45 27.35-4.35 27.35 0ZM45.85 0.65L45.85 0.65Q42.6 0.65 39.87-0.51 37.15-1.68 35.48-3.98 33.82-6.28 33.75-9.73L33.75-9.73 38.4-9.73Q38.4-7.65 39.41-6.33 40.42-5 42.1-4.36 43.77-3.73 45.8-3.73L45.8-3.73Q47.85-3.73 49.42-4.35 51-4.98 51.86-6.03 52.72-7.08 52.72-8.43L52.72-8.43Q52.72-10.25 51.6-11.36 50.47-12.48 48.17-13.25L48.17-13.25 42.25-15.45Q38.42-16.88 36.42-18.74 34.42-20.6 34.42-23.93L34.42-23.93Q34.42-27.7 37.37-30.06 40.32-32.43 45.67-32.43L45.67-32.43Q50.75-32.43 53.56-30.08 56.37-27.73 56.77-23.68L56.77-23.68 52.1-23.68Q51.75-25.73 50.19-26.93 48.62-28.13 45.67-28.13L45.67-28.13Q42.82-28.13 41.22-26.89 39.62-25.65 39.62-23.78L39.62-23.78Q39.62-22.23 40.63-21.3 41.65-20.38 43.8-19.63L43.8-19.63 50.55-17.15Q54.02-15.93 55.97-13.85 57.92-11.78 57.92-8.58L57.92-8.58Q57.92-5.88 56.52-3.8 55.12-1.73 52.42-0.54 49.72 0.65 45.85 0.65Z" opacity="1" transform="matrix(1,0,0,1,0,0)" fill="#556b2f" class="undefined-text-0" data-fill-palette-color="primary" id="text-0"></path></svg></g></svg></g></svg></g></svg></g></svg></g></svg></g></svg></g><defs></defs></svg><rect width="512" height="320" fill="none" stroke="none" visibility="hidden"></rect></g></svg></g></svg>