<?xml version="1.0" encoding="UTF-8"?>
<svg version="1.1" viewBox="0 0 1000 625" xmlns="http://www.w3.org/2000/svg">
<g>
<svg width="1e3" height="625" data-background-color="#ffffff" viewBox="0 0 512 320" xmlns="http://www.w3.org/2000/svg" xmlns:xlink="http://www.w3.org/1999/xlink">
<g>
<svg width="512" height="320" viewBox="0 0 512 320">
<svg/>
<svg width="512" height="320" viewBox="0 0 512 320">
<path d="m96 160c0-88.366 71.634-160 160-160s160 71.634 160 160-71.634 160-160 160-160-71.634-160-160zm160 156.11c86.216 0 156.11-69.892 156.11-156.11 0-86.216-69.892-156.11-156.11-156.11-86.216 0-156.11 69.892-156.11 156.11 0 86.216 69.892 156.11 156.11 156.11z" fill="#556b2f" font-family="none" font-size="none" font-weight="none" stroke-dasharray="" stroke-miterlimit="10" text-anchor="none" style="mix-blend-mode:normal" data-fill-palette-color="tertiary" xmlns="http://www.w3.org/2000/svg"/>
<g transform="translate(175.01 80)">
<svg width="161.98" height="160" viewBox="0 0 161.98199218073816 160">
<svg width="161.98" height="160" viewBox="0 0 242.96683295540439 239.99392">
<svg width="242.97" height="239.99" viewBox="0 0 242.96683295540439 239.99392">
<svg width="242.97" height="239.99" viewBox="0 0 242.96683295540439 239.99392">
<rect width="242.97" height="160" fill="none" stroke="#556b2f" stroke-width="5.837" data-fill-palette-color="none" data-stroke-palette-color="tertiary"/>
<rect y="160" width="242.97" height="79.994" fill="#556b2f" data-fill-palette-color="tertiary"/>
<svg width="242.97" height="160" viewBox="0 0 242.96683295540439 160">
<g transform="translate(15.28 15.28)">
<svg width="212.41" height="129.44" data-palette-color="#556b2f" viewBox="3.6500000953674316 -32.43000030517578 54.269996643066406 33.08000183105469">
<path class="undefined-text-0" d="m27.35 0h-23.7v-4.17l19.08-24.98v1.75l-19.08-0.1v-4.35h23.7v4.17l-18.25 23.93-0.25-0.7 18.5 0.1v4.35zm18.5 0.65q-3.25 0-5.98-1.16-2.72-1.17-4.39-3.47-1.66-2.3-1.73-5.75h4.65q0 2.08 1.01 3.4 1.01 1.33 2.69 1.97 1.67 0.63 3.7 0.63 2.05 0 3.62-0.62 1.58-0.63 2.44-1.68t0.86-2.4q0-1.82-1.12-2.93-1.13-1.12-3.43-1.89l-5.92-2.2q-3.83-1.43-5.83-3.29t-2-5.19q0-3.77 2.95-6.13 2.95-2.37 8.3-2.37 5.08 0 7.89 2.35t3.21 6.4h-4.67q-0.35-2.05-1.91-3.25-1.57-1.2-4.52-1.2-2.85 0-4.45 1.24t-1.6 3.11q0 1.55 1.01 2.48 1.02 0.92 3.17 1.67l6.75 2.48q3.47 1.22 5.42 3.3 1.95 2.07 1.95 5.27 0 2.7-1.4 4.78-1.4 2.07-4.1 3.26t-6.57 1.19z" fill="#556b2f" data-fill-palette-color="primary"/>
</svg>
</g>
</svg>
</svg>
</svg>
</svg>
</svg>
</g>
</svg>
</svg>
<rect width="512" height="320" fill="none" visibility="hidden"/>
</g>
</svg>
</g>
</svg>
